<?xml version="1.0" encoding="utf-8"?>
<!-- Generator: Adobe Illustrator 24.0.0, SVG Export Plug-In . SVG Version: 6.00 Build 0)  -->
<svg version="1.1" id="Layer_1" xmlns="http://www.w3.org/2000/svg" xmlns:xlink="http://www.w3.org/1999/xlink" x="0px" y="0px"
	 viewBox="0 0 603.1 173.7" style="enable-background:new 0 0 603.1 173.7;" xml:space="preserve">
<style type="text/css">
	.st0{fill:url(#SVGID_1_);}
	.st1{fill:url(#SVGID_2_);}
	.st2{fill:url(#SVGID_3_);}
	.st3{fill:url(#SVGID_4_);}
	.st4{fill:url(#SVGID_5_);}
	.st5{fill:url(#SVGID_6_);}
	.st6{fill:url(#SVGID_7_);}
	.st7{fill:#010101;}
</style>
<g>
	<linearGradient id="SVGID_1_" gradientUnits="userSpaceOnUse" x1="183.1123" y1="-50.2535" x2="64.3267" y2="305.498">
		<stop  offset="0" style="stop-color:#EB2227"/>
		<stop  offset="0.5054" style="stop-color:#BE2326"/>
		<stop  offset="1" style="stop-color:#9C1D20"/>
	</linearGradient>
	<path class="st0" d="M92.7,173.7c1.2-15,9.2-28,25.4-42.1c5.1-4.4,10.9-8.8,16.5-12.9c12.4-9.3,25.3-19,34-31.3
		c9.8-13.8,13.1-32.3,8.6-47.1c-3.6-11.7-11.6-20.2-23.2-24.6c-5.7-2.2-11.6-3.4-17.5-3.4c-12.5,0-24.4,5-34.2,14.1
		c8.1-18.1,28-26.5,45-26.5c4,0,7.9,0.4,11.7,1.3c18.4,3.9,31.7,15.9,37.6,33.6c7,21.3,1.7,47.1-13.4,64.2
		c-11.2,12.8-28.1,22.7-44.4,32.4c-4.7,2.8-9.6,5.7-14.2,8.6C108.9,149.6,98.7,158.3,92.7,173.7z"/>
	<linearGradient id="SVGID_2_" gradientUnits="userSpaceOnUse" x1="99.6952" y1="-68.2402" x2="-13.5285" y2="270.8537">
		<stop  offset="0" style="stop-color:#EB2227"/>
		<stop  offset="0.5054" style="stop-color:#BE2326"/>
		<stop  offset="1" style="stop-color:#9C1D20"/>
	</linearGradient>
	<path class="st1" d="M85.8,152.4C78,139.1,63,131.1,48.5,123.3c-12.1-6.5-24.6-13.2-33.3-22.9C3.2,87-2.4,67.1,1,49.6
		c1.9-9.8,7.4-23,22.8-30.6c6.1-3.1,12.7-4.6,19.5-4.6c24.2,0,45.3,19.3,50.6,32.6l1.6,4.1l2-3.9c5.6-11,15.6-18.4,26.8-20
		c-12.9,5.9-23.8,19.6-30.5,34c-8-17.8-23.7-34.5-43.2-34.5c-6.1,0-12.3,1.6-18.3,4.8C24.2,36,19,43.4,17.1,52.9
		c-2.5,12.7,1.5,27.9,10,38.7c6.1,7.9,15.2,14.6,24.8,21.8C67.1,124.7,82.6,136.3,85.8,152.4z"/>
	<g>
		<linearGradient id="SVGID_3_" gradientUnits="userSpaceOnUse" x1="247.011" y1="-1.7536" x2="236.4792" y2="209.935">
			<stop  offset="0" style="stop-color:#EB2227"/>
			<stop  offset="0.5054" style="stop-color:#BE2326"/>
			<stop  offset="1" style="stop-color:#9C1D20"/>
		</linearGradient>
		<path class="st2" d="M283,34.2v3.3h-32.7v69.1H240V37.5h-32.7v-3.3H283z"/>
		<linearGradient id="SVGID_4_" gradientUnits="userSpaceOnUse" x1="302.4348" y1="1.0037" x2="291.903" y2="212.6929">
			<stop  offset="0" style="stop-color:#EB2227"/>
			<stop  offset="0.5054" style="stop-color:#BE2326"/>
			<stop  offset="1" style="stop-color:#9C1D20"/>
		</linearGradient>
		<path class="st3" d="M293.9,106.6V34.1h10.2v72.5H293.9z"/>
		<linearGradient id="SVGID_5_" gradientUnits="userSpaceOnUse" x1="366.8203" y1="4.207" x2="356.2885" y2="215.8957">
			<stop  offset="0" style="stop-color:#EB2227"/>
			<stop  offset="0.5054" style="stop-color:#BE2326"/>
			<stop  offset="1" style="stop-color:#9C1D20"/>
		</linearGradient>
		<path class="st4" d="M321.7,106.6l6.1-72.5h8.8l26.1,52.7l22.4-52.7h10.2l6.5,72.5h-11l-5.7-62.2l-25.3,58.7l-28.5-56.9l-5.7,60.4
			H321.7z"/>
		<linearGradient id="SVGID_6_" gradientUnits="userSpaceOnUse" x1="476.3125" y1="9.6544" x2="465.7807" y2="221.3433">
			<stop  offset="0" style="stop-color:#EB2227"/>
			<stop  offset="0.5054" style="stop-color:#BE2326"/>
			<stop  offset="1" style="stop-color:#9C1D20"/>
		</linearGradient>
		<path class="st5" d="M478.1,34.1c44.6,0,44.9,72.5,0,72.5h-35.7V72.5H435v-4.3h7.3V34.1H478.1z M452.4,37.4v30.8h14.1v4.3h-14.1
			v30.8h19c38.7,0.9,38.5-64.9,0-65.9H452.4z"/>
		<linearGradient id="SVGID_7_" gradientUnits="userSpaceOnUse" x1="565.1209" y1="14.0727" x2="554.5891" y2="225.7613">
			<stop  offset="0" style="stop-color:#EB2227"/>
			<stop  offset="0.5054" style="stop-color:#BE2326"/>
			<stop  offset="1" style="stop-color:#9C1D20"/>
		</linearGradient>
		<path class="st6" d="M562.4,32.1c54.4,0,54.4,76.1,0,76.1C507.9,108.2,507.9,32.1,562.4,32.1z M562.4,105.9
			c38.3,0,38.3-71.3,0-71.3C524.2,34.6,523.9,105.9,562.4,105.9z M563.2,24.5c2.5-2.5,3.6-4.5,3.4-6.3c-0.1-2.5-2-3.1-5.8-1.8
			l-1-2.9c2.2-1.2,4.1-2,6.1-2.1c3.2-0.4,6.1,0.9,6.5,4.3c0.3,3-1.7,6.3-6.2,9.9L563.2,24.5z"/>
	</g>
	<g>
		<path class="st7" d="M322.4,134v-1.8h-10.6v4H322c0.6,0,1.1,0.1,1.6,0.2c0.4,0.1,0.8,0.3,1.1,0.6c0.3,0.3,0.5,0.6,0.6,1.1
			c0.1,0.4,0.2,1,0.2,1.6v2.3c0,0.6-0.1,1.2-0.2,1.6c-0.1,0.4-0.3,0.8-0.6,1.1c-0.3,0.3-0.6,0.5-1.1,0.6c-0.4,0.1-1,0.2-1.6,0.2
			h-9.7c-0.6,0-1.2-0.1-1.6-0.2c-0.4-0.1-0.8-0.3-1-0.6c-0.3-0.3-0.5-0.6-0.6-1.1c-0.1-0.4-0.2-1-0.2-1.6v-0.7l2.6-0.6v2.2h11.4
			v-4.4h-10.1c-1.3,0-2.1-0.3-2.6-0.8c-0.5-0.5-0.8-1.4-0.8-2.6v-1.9c0-1.3,0.3-2.1,0.8-2.6c0.5-0.5,1.4-0.8,2.6-0.8h9
			c0.6,0,1.2,0.1,1.6,0.2c0.4,0.1,0.8,0.3,1.1,0.6c0.3,0.3,0.5,0.6,0.6,1.1c0.1,0.4,0.2,1,0.2,1.6v0.3L322.4,134z"/>
		<path class="st7" d="M333,129.7h2.6v15.5H333V129.7z"/>
		<path class="st7" d="M343.7,129.7h1.9l13.1,11.6v-11.6h2.6v15.5h-1.9l-13.1-11.6v11.6h-2.6V129.7z"/>
		<path class="st7" d="M383.7,135.4v-3.3h-12.1v10.6h12.1v-3.6l2.6,0.6v2.1c0,0.6-0.1,1.2-0.2,1.6c-0.1,0.4-0.3,0.8-0.6,1.1
			c-0.3,0.3-0.6,0.5-1.1,0.6c-0.4,0.1-1,0.2-1.6,0.2h-10.5c-0.6,0-1.2-0.1-1.6-0.2c-0.4-0.1-0.8-0.3-1-0.6c-0.3-0.3-0.5-0.6-0.6-1.1
			c-0.1-0.4-0.2-1-0.2-1.6v-8.7c0-1.3,0.3-2.1,0.8-2.6c0.5-0.5,1.4-0.8,2.6-0.8h10.5c1.3,0,2.1,0.3,2.6,0.8c0.5,0.5,0.8,1.4,0.8,2.6
			v1.7L383.7,135.4z"/>
		<path class="st7" d="M394.1,129.7H409v2.4h-12.3v4h7.5v2.3h-7.5v4.3h12.4v2.4h-15V129.7z"/>
		<path class="st7" d="M427.7,132l-3.3,0.3v-1.7l5.8-1v15.6h-2.4V132z"/>
		<path class="st7" d="M451.4,142.9v-4.1H441c-0.5,0-0.9,0-1.2-0.1c-0.3-0.1-0.6-0.2-0.8-0.3c-0.4-0.2-0.6-0.5-0.8-0.9
			c-0.1-0.4-0.2-1-0.2-1.7v-3.1c0-0.5,0-0.8,0-1.1c0-0.3,0.1-0.5,0.2-0.7c0.2-0.5,0.5-0.8,0.9-1s1.1-0.3,1.9-0.3h9.7
			c0.5,0,0.9,0,1.2,0.1c0.3,0.1,0.6,0.2,0.9,0.3c0.4,0.2,0.6,0.5,0.8,0.9c0.1,0.4,0.2,1,0.2,1.7v9.4c0,0.5,0,0.8,0,1.1
			c0,0.3-0.1,0.5-0.2,0.7c-0.2,0.4-0.5,0.7-0.9,0.9c-0.4,0.2-1.1,0.3-1.9,0.3H441c-0.6,0-1.1-0.1-1.5-0.2c-0.4-0.1-0.7-0.3-1-0.5
			c-0.2-0.2-0.4-0.5-0.5-0.9c-0.1-0.4-0.2-0.8-0.2-1.3v-0.6l2.4-0.5v1.7H451.4z M440.4,136.6h11V132h-11V136.6z"/>
		<path class="st7" d="M463.1,137.2c-0.4-0.2-0.6-0.4-0.8-0.5c-0.2-0.2-0.3-0.3-0.4-0.6c-0.2-0.4-0.3-0.9-0.3-1.6v-1.7
			c0-0.5,0-0.8,0.1-1.1c0-0.3,0.1-0.5,0.2-0.7c0.2-0.5,0.5-0.8,1-1c0.4-0.2,1.1-0.3,1.9-0.3h9.5c0.5,0,0.9,0,1.2,0.1
			c0.3,0.1,0.6,0.2,0.9,0.3c0.4,0.2,0.7,0.5,0.8,0.9c0.1,0.4,0.2,1,0.2,1.7v1.7c0,0.6-0.1,1.2-0.3,1.6c-0.1,0.2-0.3,0.4-0.4,0.6
			c-0.2,0.2-0.4,0.3-0.8,0.5c0.4,0.1,0.7,0.3,0.8,0.4c0.2,0.1,0.4,0.3,0.5,0.6c0.2,0.3,0.3,0.5,0.3,0.8c0.1,0.3,0.1,0.6,0.1,1v2.1
			c0,0.5,0,0.8-0.1,1.1c0,0.3-0.1,0.5-0.2,0.7c-0.2,0.4-0.5,0.7-1,0.9c-0.4,0.2-1.1,0.3-1.9,0.3h-10.2c-0.5,0-0.9,0-1.2-0.1
			c-0.3-0.1-0.6-0.2-0.8-0.3c-0.4-0.2-0.6-0.5-0.8-0.9c-0.1-0.4-0.2-1-0.2-1.7V140c0-0.4,0-0.8,0.1-1c0.1-0.3,0.2-0.5,0.3-0.8
			c0.2-0.3,0.3-0.5,0.5-0.6C462.4,137.5,462.7,137.3,463.1,137.2z M463.7,141.5c0,0.5,0.1,0.9,0.3,1.1c0.2,0.2,0.6,0.3,1.1,0.3h8.7
			c0.5,0,0.9-0.1,1.1-0.3c0.2-0.2,0.3-0.6,0.3-1.1v-1.7c0-0.5-0.1-0.9-0.3-1.1c-0.2-0.2-0.6-0.3-1.1-0.3h-8.7
			c-0.6,0-0.9,0.1-1.1,0.3c-0.2,0.2-0.3,0.6-0.3,1.1V141.5z M464.1,134.7c0,0.5,0.1,0.9,0.3,1.1c0.2,0.2,0.6,0.3,1.1,0.3h8
			c0.6,0,0.9-0.1,1.1-0.3c0.2-0.2,0.3-0.6,0.3-1.1v-1.3c0-0.5-0.1-0.9-0.3-1.1c-0.2-0.2-0.6-0.3-1.1-0.3h-8c-0.5,0-0.9,0.1-1.1,0.3
			c-0.2,0.2-0.3,0.6-0.3,1.1V134.7z"/>
		<path class="st7" d="M488.4,145.2c-1.2,0-2.1-0.2-2.5-0.7c-0.5-0.5-0.7-1.3-0.7-2.5V133c0-1.2,0.2-2.1,0.7-2.5
			c0.5-0.5,1.3-0.7,2.5-0.7h9.9c1.2,0,2,0.2,2.5,0.7c0.5,0.5,0.7,1.3,0.7,2.5v8.9c0,1.2-0.2,2-0.7,2.5c-0.5,0.5-1.3,0.7-2.5,0.7
			H488.4z M499.2,142.9V132h-11.6v10.9H499.2z"/>
	</g>
</g>
</svg>
